<?xml version="1.0" standalone="no"?>
<!DOCTYPE svg PUBLIC "-//W3C//DTD SVG 20010904//EN"
 "http://www.w3.org/TR/2001/REC-SVG-20010904/DTD/svg10.dtd">
<svg version="1.0" xmlns="http://www.w3.org/2000/svg"
 width="1920.000000pt" height="1920.000000pt" viewBox="0 0 1920.000000 1920.000000"
 preserveAspectRatio="xMidYMid meet">

<g transform="translate(0.000000,1920.000000) scale(0.100000,-0.100000)"
fill="#000000" stroke="none">
<path d="M6950 12859 c-103 -12 -238 -52 -344 -102 -302 -142 -507 -410 -571
-745 l-18 -93 -126 -78 c-207 -128 -225 -137 -331 -151 -120 -16 -203 -41
-310 -94 -174 -87 -396 -250 -519 -382 -131 -140 -232 -333 -278 -529 -27
-118 -25 -386 4 -511 59 -254 190 -495 373 -688 l71 -75 -10 -133 c-34 -431
-33 -713 4 -959 8 -58 42 -197 76 -310 33 -112 82 -284 110 -382 56 -202 110
-320 186 -409 121 -142 256 -210 478 -243 55 -9 187 -31 294 -51 223 -41 406
-48 541 -21 110 22 262 80 374 143 95 53 102 55 201 64 682 60 1369 351 1941
822 39 32 73 58 76 58 3 0 5 -30 4 -66 -1 -36 2 -67 5 -70 4 -2 87 3 185 11
330 27 757 54 1034 64 151 6 327 14 390 17 214 12 399 0 970 -62 389 -43 843
-128 1425 -269 117 -28 552 -160 745 -225 272 -92 757 -259 783 -269 62 -24
59 -38 55 277 l-3 287 -37 107 -38 106 0 1660 0 1660 25 55 c47 107 55 161 55
371 l0 196 -874 0 -874 0 -7 -27 c-7 -27 -71 -301 -195 -828 -33 -143 -64
-269 -68 -279 -6 -14 -52 157 -152 557 l-143 577 -2030 2 -2030 3 -14 40 c-9
24 -16 87 -17 155 -4 137 -15 187 -69 300 -33 70 -55 100 -126 170 -121 120
-238 178 -401 200 -49 6 -108 24 -170 51 -204 89 -431 123 -650 98z m325 -180
c93 -15 221 -57 308 -100 61 -30 91 -39 131 -39 173 -1 354 -120 434 -288 36
-75 37 -80 38 -197 1 -90 6 -137 22 -190 11 -38 26 -98 33 -132 l12 -63 824 0
823 0 11 -27 c6 -16 28 -93 49 -173 21 -80 47 -167 58 -194 l19 -50 11 35 c14
41 37 177 53 312 l11 97 1106 -2 1105 -3 152 -615 c84 -338 178 -723 210 -854
34 -141 61 -233 65 -225 7 14 90 349 170 689 23 96 63 267 90 380 27 113 67
284 90 380 23 96 45 192 51 213 l10 37 721 0 720 0 -4 -117 c-4 -106 -8 -126
-39 -198 l-34 -80 -3 -1702 -2 -1703 36 -107 c35 -101 37 -117 42 -261 3 -129
2 -153 -10 -150 -8 1 -234 76 -503 165 -270 90 -536 177 -592 194 l-103 31 0
96 c0 94 1 99 40 170 l40 73 -1 272 -1 272 -29 -89 c-17 -49 -46 -152 -66
-228 l-35 -139 17 -67 c20 -81 33 -336 17 -346 -6 -4 -75 9 -154 28 -222 54
-574 131 -788 172 -221 42 -255 57 -289 126 -26 55 -28 140 -4 214 l16 53 -37
138 c-21 76 -52 183 -69 238 -38 121 -41 111 -35 -125 4 -161 4 -167 35 -230
17 -36 34 -74 37 -85 9 -31 15 -254 7 -259 -3 -2 -122 9 -263 24 -235 26 -773
76 -893 82 l-50 3 0 105 c0 103 1 107 43 193 l42 89 0 1036 -1 1037 -98 -230
c-54 -126 -128 -293 -165 -369 l-66 -139 0 -676 0 -676 33 -55 c50 -82 57
-112 57 -231 l0 -109 -97 0 c-171 0 -912 -41 -1210 -67 l-73 -6 0 145 c0 132
2 147 20 163 36 33 68 99 75 159 5 38 4 57 -2 55 -6 -2 -44 -49 -86 -104 -147
-195 -316 -356 -564 -537 -500 -364 -1069 -581 -1673 -638 -97 -9 -124 -15
-170 -40 -244 -134 -355 -170 -540 -177 -116 -5 -146 -2 -430 46 -168 28 -332
61 -365 73 -122 43 -220 128 -283 245 -17 33 -48 118 -68 189 -20 71 -69 242
-109 379 -88 304 -82 275 -100 437 -23 209 -15 636 20 1004 l4 52 -84 83
c-287 280 -426 637 -385 984 33 279 160 492 414 689 241 188 411 266 614 282
86 7 84 6 388 196 l161 101 6 71 c45 529 523 876 1082 785z"/>
<path d="M6992 12519 c-89 -10 -222 -55 -299 -100 -32 -19 -92 -68 -134 -110
-63 -62 -85 -93 -122 -170 -54 -111 -77 -208 -77 -318 l0 -80 -62 -44 c-60
-42 -295 -191 -461 -290 -69 -42 -84 -47 -136 -47 -104 0 -209 -26 -306 -75
-153 -77 -361 -238 -452 -350 -280 -344 -206 -886 168 -1240 41 -38 91 -83
111 -100 l36 -30 -8 -85 c-28 -284 -42 -599 -37 -805 6 -240 19 -339 68 -505
17 -58 64 -221 104 -362 81 -279 96 -318 155 -382 64 -70 127 -93 333 -126
100 -16 229 -38 287 -49 139 -28 290 -28 394 -1 73 19 190 70 316 140 61 33
146 52 315 69 597 61 1228 340 1720 761 342 293 557 644 621 1013 25 141 15
419 -19 547 -151 564 -592 982 -1149 1091 -334 66 -694 -6 -995 -198 -171
-108 -403 -322 -403 -371 0 -24 49 -8 172 54 126 63 281 118 378 133 192 31
369 -14 437 -112 25 -36 28 -49 28 -121 0 -74 -3 -87 -38 -151 -40 -75 -127
-183 -192 -238 -22 -19 -92 -71 -155 -117 -175 -126 -241 -182 -410 -347 -85
-84 -158 -153 -161 -153 -3 0 -12 12 -20 27 -30 58 -220 302 -308 394 -50 54
-91 101 -91 106 0 6 10 18 21 29 33 30 98 130 129 198 72 160 85 364 36 549
-14 53 -26 101 -26 105 0 4 33 26 73 50 39 24 101 67 137 97 114 95 98 90 197
70 330 -66 640 52 805 304 68 104 99 208 106 350 5 132 -7 220 -49 336 -25 69
-28 84 -18 114 6 19 11 58 10 87 -2 116 -70 215 -185 271 -63 30 -79 34 -141
31 -61 -2 -77 1 -120 26 -182 101 -391 146 -583 125z m223 -214 c159 -33 286
-101 411 -218 257 -242 332 -574 191 -842 -39 -74 -144 -181 -214 -218 -61
-33 -165 -57 -243 -57 l-55 0 35 21 c45 27 94 88 115 143 23 59 7 92 -57 125
-43 21 -48 26 -48 57 0 19 9 52 20 74 11 22 20 46 20 53 0 8 7 21 17 28 28 24
56 99 54 151 -2 96 -73 201 -166 244 -55 26 -152 32 -201 14 l-27 -11 54 -56
c57 -58 55 -59 -26 -7 -144 91 -313 155 -410 156 -76 0 -97 -10 -158 -75 l-48
-52 5 44 c7 70 77 199 138 258 74 72 97 89 171 124 123 57 278 73 422 44z
m653 -134 c23 -28 42 -57 42 -64 -1 -7 -15 6 -33 28 -17 22 -46 55 -64 74 -18
18 -33 35 -33 38 0 14 49 -29 88 -76z m-1123 -381 c24 -12 81 -63 139 -125 53
-58 137 -134 185 -171 96 -71 115 -97 114 -150 -1 -40 -40 -104 -64 -104 -14
0 -218 222 -318 346 -42 52 -71 58 -71 16 0 -45 42 -117 160 -272 94 -125 109
-150 110 -183 0 -29 -7 -45 -29 -68 -42 -41 -64 -37 -103 19 -18 26 -65 88
-104 139 -40 50 -89 119 -109 152 -51 82 -88 83 -88 2 0 -45 36 -117 122 -244
99 -145 111 -168 111 -210 0 -51 -24 -90 -73 -117 -42 -24 -41 -24 -69 25 -47
84 -174 219 -282 300 -112 84 -182 118 -385 190 -7 3 35 34 95 71 155 93 320
214 389 284 62 62 160 120 203 120 14 0 44 -9 67 -20z m-900 -714 c525 -159
851 -713 678 -1156 -144 -368 -564 -524 -984 -366 -393 147 -669 539 -646 917
6 110 25 187 67 270 86 174 239 295 440 349 112 30 320 23 445 -14z m2410
-1391 c120 -26 208 -75 300 -168 44 -45 87 -95 95 -110 13 -27 12 -32 -14 -83
-126 -241 -552 -475 -1231 -677 l-80 -24 106 -7 c201 -14 537 15 774 65 77 16
154 32 172 36 l32 5 -20 -53 c-33 -89 -117 -233 -186 -318 -253 -316 -698
-537 -1273 -631 -181 -30 -246 -54 -369 -134 -110 -72 -318 -125 -429 -111
-121 16 -217 45 -313 96 -77 41 -94 73 -94 179 -1 79 -4 93 -52 205 -96 225
-190 547 -240 820 -15 82 -18 152 -18 392 0 160 3 294 7 298 3 3 48 -8 100
-25 116 -39 221 -60 303 -60 35 0 66 -4 69 -9 3 -5 21 -90 40 -191 19 -100 37
-185 40 -188 3 -3 6 35 6 84 0 84 14 243 26 289 4 16 20 24 72 36 37 9 96 27
131 40 l63 24 35 -40 c97 -111 136 -275 113 -470 -22 -185 -117 -509 -251
-859 -38 -98 -68 -181 -66 -183 2 -2 64 17 137 42 365 125 620 298 757 513 76
119 109 227 124 406 17 215 62 322 189 459 135 144 408 296 635 353 69 17 226
17 310 -1z"/>
<path d="M5485 10801 c-88 -25 -159 -68 -226 -135 -33 -32 -57 -61 -55 -63 2
-3 21 6 43 20 92 58 148 71 293 71 121 0 142 -2 202 -26 37 -14 94 -41 125
-59 74 -44 189 -159 231 -230 92 -157 110 -340 51 -502 -12 -31 -26 -60 -30
-63 -5 -3 -9 -10 -9 -16 0 -20 61 44 101 105 117 180 112 422 -13 614 -85 132
-246 249 -394 287 -82 21 -240 20 -319 -3z"/>
<path d="M5531 10449 c-51 -15 -106 -54 -130 -92 -31 -50 -27 -57 22 -40 81
29 208 -4 288 -75 20 -17 51 -59 69 -93 27 -51 33 -74 34 -129 1 -61 3 -67 18
-59 48 26 88 113 88 189 0 187 -211 350 -389 299z"/>
<path d="M8271 11600 c-9 -5 -17 -44 -23 -111 -11 -133 -30 -202 -87 -320
l-48 -96 116 -12 c144 -14 240 -34 356 -73 114 -38 274 -113 355 -167 34 -23
64 -40 65 -39 5 5 -164 377 -190 419 -48 75 -176 189 -321 285 -152 102 -203
127 -223 114z m204 -309 c54 -37 135 -111 135 -122 0 -4 -28 1 -62 11 -35 10
-88 23 -119 30 l-56 11 16 59 c9 35 19 56 26 52 5 -3 33 -22 60 -41z"/>
<path d="M8780 11494 c0 -4 31 -37 68 -74 94 -91 124 -138 204 -319 128 -287
309 -683 437 -956 l126 -270 0 -721 0 -722 -47 -94 c-27 -51 -48 -99 -48 -106
0 -9 13 -11 48 -7 73 8 490 34 652 40 280 11 340 16 340 31 0 8 -13 36 -30 62
-62 102 -60 68 -60 833 l0 699 56 117 c61 129 79 169 303 692 152 354 246 555
281 601 l18 24 7 -34 c3 -19 4 -663 3 -1430 l-3 -1395 -37 -67 c-61 -106 -64
-103 115 -117 192 -15 655 -60 685 -66 30 -7 29 11 -9 96 -16 39 -34 96 -40
127 -11 69 -12 1532 -1 1532 4 0 48 -134 96 -297 402 -1350 393 -1316 362
-1411 -10 -28 -16 -63 -14 -78 l3 -27 285 -58 c157 -32 360 -75 453 -97 l167
-39 0 28 c0 15 -7 58 -16 96 -20 87 -10 162 51 363 68 223 234 785 320 1080
42 146 79 267 81 269 3 3 3 -393 2 -880 l-3 -884 -38 -74 c-21 -40 -36 -78
-34 -85 3 -6 31 -20 63 -29 33 -10 225 -73 427 -139 202 -66 370 -118 373
-115 3 3 -12 52 -33 109 l-38 103 -3 1715 c-3 1811 -4 1769 43 1875 12 28 25
62 29 78 l6 27 -568 0 -568 0 -48 -202 c-179 -757 -203 -857 -371 -1548 -132
-543 -125 -518 -135 -500 -4 8 -40 152 -80 320 -66 281 -344 1424 -424 1740
-18 74 -36 147 -40 163 l-6 27 -955 0 c-900 0 -954 -1 -958 -17 -3 -10 -5 -45
-5 -78 1 -54 -9 -83 -92 -280 -131 -313 -142 -337 -151 -328 -4 4 -30 67 -57
138 -27 72 -77 191 -111 266 -55 122 -61 143 -61 202 0 36 -3 72 -6 81 -5 14
-60 16 -510 16 -277 0 -504 -3 -504 -6z"/>
<path d="M10043 7163 l-33 -4 0 -328 c0 -180 2 -330 4 -332 2 -2 47 -3 100 -1
l96 3 1 172 1 172 26 -56 c15 -31 51 -108 81 -172 l54 -117 123 0 124 0 -2
333 -3 332 -97 3 -97 3 -3 -148 -3 -147 -66 144 -65 145 -105 1 c-57 1 -119
-1 -136 -3z"/>
<path d="M10910 6835 l0 -333 83 -6 c45 -3 148 -7 230 -10 l147 -4 0 44 0 44
-79 0 c-43 0 -93 3 -110 6 l-31 7 0 115 0 115 100 -7 100 -6 0 39 c0 48 -7 51
-116 51 l-84 0 0 92 0 91 110 -6 110 -7 0 44 0 44 -177 6 c-98 3 -202 8 -230
10 l-53 5 0 -334z"/>
<path d="M9425 7135 c-104 -7 -193 -14 -197 -14 -5 -1 -8 -19 -8 -41 l0 -40
65 0 65 0 0 -285 0 -285 59 0 c32 0 86 3 120 6 l61 7 0 288 0 288 68 3 67 3 0
40 0 40 -55 1 c-30 1 -140 -4 -245 -11z"/>
<path d="M11757 7109 c-85 -20 -112 -58 -105 -151 5 -72 21 -90 165 -190 118
-81 143 -110 143 -165 0 -44 -14 -63 -45 -63 -36 0 -45 20 -45 101 l0 76 -67
6 c-38 4 -87 7 -110 7 l-43 0 0 -80 c0 -88 13 -127 53 -153 68 -44 273 -70
381 -47 90 18 106 40 106 140 0 59 -5 88 -17 106 -9 15 -67 62 -128 105 -141
100 -155 115 -158 170 -2 44 -2 44 33 44 l35 0 3 -67 3 -66 77 -7 c150 -13
137 -17 140 40 2 28 -3 68 -10 90 -11 33 -22 44 -68 67 -86 43 -245 60 -343
37z"/>
<path d="M8810 7086 l-105 -11 -3 -329 -2 -328 102 7 c57 3 111 9 121 11 16 5
17 30 17 335 0 257 -3 329 -12 328 -7 -1 -60 -7 -118 -13z"/>
<path d="M8180 7010 c-107 -16 -196 -29 -197 -29 -2 -1 -3 -147 -3 -326 l0
-324 28 4 c29 5 191 25 204 25 5 0 8 71 8 159 l0 158 73 7 c105 10 107 11 107
58 0 37 -2 40 -22 35 -13 -3 -53 -9 -90 -12 l-68 -7 0 85 c0 97 -9 90 115 102
93 10 95 11 95 56 0 48 15 47 -250 9z"/>
<path d="M12542 7015 c-53 -23 -70 -94 -47 -192 3 -14 56 -60 139 -122 142
-106 160 -129 154 -197 -3 -34 -6 -39 -31 -42 -47 -6 -57 12 -57 98 l0 77
-101 12 c-56 7 -103 11 -105 9 -2 -2 -4 -43 -5 -91 -2 -105 9 -125 83 -160 71
-33 164 -49 274 -49 148 0 189 34 182 150 -4 85 -15 100 -141 193 -54 40 -113
88 -131 105 -59 57 -54 147 7 125 19 -7 22 -17 25 -75 2 -54 6 -66 20 -67 9 0
56 -6 105 -13 48 -7 90 -10 92 -7 3 2 5 32 5 65 0 108 -45 149 -198 181 -87
19 -227 19 -270 0z"/>
<path d="M7180 6700 c-129 -27 -238 -49 -242 -49 -5 -1 -8 -39 -8 -86 0 -63 3
-85 13 -85 31 0 507 69 517 75 11 7 14 135 4 173 -4 14 -13 22 -28 21 -11 -1
-127 -23 -256 -49z"/>
<path d="M13540 6650 l0 -99 33 -6 c47 -8 479 -65 494 -65 10 0 13 22 13 85 0
80 -1 85 -22 89 -77 17 -497 96 -507 96 -7 0 -11 -32 -11 -100z"/>
</g>
</svg>
